
<svg
  version="1.0"
  xmlns="http://www.w3.org/2000/svg"
  xmlns:xlink="http://www.w3.org/1999/xlink"
  width="2400"
  height="1800"
>
  
  <rect
    x="0"
    y="0"
    width="100%"
    height="100%"
    fill="#040e29"
    fill-opacity="1"
  ></rect>
  <svg
    version="1.0"
    xmlns="http://www.w3.org/2000/svg"
    xmlns:xlink="http://www.w3.org/1999/xlink"
    x="0"
    y="0"
    width="2400"
    height="1800"
    viewBox="0 0 340.000000 250.000000"
    preserveAspectRatio="xMidYMid meet"
    color-interpolation-filters="sRGB"
  >
    <defs><linearGradient id="92" x1="0%" y1="0%" x2="100%" y2="0%"><stop offset="0%" stop-color="#fa71cd"/> <stop offset="100%" stop-color="#9b59b6"/></linearGradient><linearGradient id="93" x1="0%" y1="0%" x2="100%" y2="0%"><stop offset="0%" stop-color="#f9d423"/> <stop offset="100%" stop-color="#f83600"/></linearGradient><linearGradient id="94" x1="0%" y1="0%" x2="100%" y2="0%"><stop offset="0%" stop-color="#0064d2"/> <stop offset="100%" stop-color="#1cb0f6"/></linearGradient><linearGradient id="95" x1="0%" y1="0%" x2="100%" y2="0%"><stop offset="0%" stop-color="#f00978"/> <stop offset="100%" stop-color="#3f51b1"/></linearGradient><linearGradient id="96" x1="0%" y1="0%" x2="100%" y2="0%"><stop offset="0%" stop-color="#7873f5"/> <stop offset="100%" stop-color="#ec77ab"/></linearGradient><linearGradient id="97" x1="0%" y1="0%" x2="100%" y2="0%"><stop offset="0%" stop-color="#f9d423"/> <stop offset="100%" stop-color="#e14fad"/></linearGradient><linearGradient id="98" x1="0%" y1="0%" x2="100%" y2="0%"><stop offset="0%" stop-color="#009efd"/> <stop offset="100%" stop-color="#2af598"/></linearGradient><linearGradient id="99" x1="0%" y1="0%" x2="100%" y2="0%"><stop offset="0%" stop-color="#ffcc00"/> <stop offset="100%" stop-color="#00b140"/></linearGradient><linearGradient id="100" x1="0%" y1="0%" x2="100%" y2="0%"><stop offset="0%" stop-color="#d51007"/> <stop offset="100%" stop-color="#ff8177"/></linearGradient><linearGradient id="102" x1="0%" y1="0%" x2="100%" y2="0%"><stop offset="0%" stop-color="#a2b6df"/> <stop offset="100%" stop-color="#0c3483"/></linearGradient><linearGradient id="103" x1="0%" y1="0%" x2="100%" y2="0%"><stop offset="0%" stop-color="#7ac5d8"/> <stop offset="100%" stop-color="#eea2a2"/></linearGradient><linearGradient id="104" x1="0%" y1="0%" x2="100%" y2="0%"><stop offset="0%" stop-color="#00ecbc"/> <stop offset="100%" stop-color="#007adf"/></linearGradient><linearGradient id="105" x1="0%" y1="0%" x2="100%" y2="0%"><stop offset="0%" stop-color="#b88746"/> <stop offset="100%" stop-color="#fdf5a6"/></linearGradient></defs> <g fill="#4481eb" class="icon-text-wrapper icon-svg-group iconsvg" transform="translate(17.420013427734375,80.43000030517578)"><g class="iconsvg-imagesvg" transform="translate(122.57998657226562,0)" mask="url(#05f07e9f-ad63-4ec1-a1e7-eeaf0730b3aa)"><g><rect fill="#4481eb" fill-opacity="0" stroke-width="2" x="0" y="0" width="60" height="60" class="image-rect"/> <svg filter="url(#colors6666408355)" x="0" y="0" width="60" height="60" filtersec="colorsf5361948445" class="image-svg-svg primary" style="overflow: visible;"><svg xmlns="http://www.w3.org/2000/svg" xmlns:xlink="http://www.w3.org/1999/xlink" version="1.1" x="0px" y="0px" viewBox="2 2 60 60" enable-background="new 0 0 64 64" xml:space="preserve"><g><path d="M61.271,27.288l-5.035-1.417c-0.593-2.351-1.521-4.591-2.766-6.674l2.56-4.563c0.219-0.391,0.152-0.879-0.165-1.196   l-5.303-5.303c-0.315-0.316-0.805-0.384-1.196-0.165l-4.563,2.56c-2.083-1.245-4.322-2.173-6.673-2.766l-1.417-5.035   C36.591,2.298,36.198,2,35.75,2h-7.5c-0.448,0-0.841,0.298-0.962,0.729l-1.417,5.035c-2.351,0.593-4.591,1.521-6.673,2.766   l-4.563-2.56c-0.39-0.219-0.879-0.151-1.196,0.165l-5.303,5.303c-0.317,0.317-0.384,0.806-0.165,1.196l2.56,4.563   c-1.245,2.083-2.173,4.323-2.766,6.674l-5.035,1.417C2.298,27.409,2,27.802,2,28.25v7.5c0,0.448,0.298,0.841,0.729,0.962   l5.035,1.417c0.592,2.351,1.521,4.59,2.766,6.674l-2.56,4.563c-0.219,0.391-0.152,0.879,0.165,1.196l5.303,5.303   c0.317,0.316,0.806,0.385,1.196,0.165l4.563-2.56c2.083,1.245,4.323,2.173,6.674,2.766l1.417,5.035   C27.409,61.702,27.802,62,28.25,62h7.5c0.448,0,0.841-0.298,0.962-0.729l1.417-5.035c2.351-0.592,4.591-1.521,6.674-2.766   l4.563,2.56c0.392,0.22,0.881,0.151,1.196-0.165l5.303-5.303c0.317-0.317,0.384-0.806,0.165-1.196l-2.56-4.563   c1.245-2.083,2.173-4.323,2.766-6.674l5.035-1.417C61.702,36.591,62,36.198,62,35.75v-7.5C62,27.802,61.702,27.409,61.271,27.288z    M60,34.993l-4.871,1.37c-0.353,0.099-0.623,0.384-0.704,0.741c-0.575,2.537-1.571,4.94-2.959,7.143   c-0.196,0.31-0.206,0.703-0.026,1.022l2.476,4.414l-4.232,4.232l-4.414-2.476c-0.319-0.179-0.712-0.169-1.022,0.026   c-2.203,1.389-4.606,2.384-7.143,2.959c-0.357,0.081-0.642,0.351-0.741,0.704L34.993,60h-5.985l-1.37-4.871   c-0.099-0.353-0.384-0.623-0.741-0.704c-2.537-0.575-4.94-1.571-7.143-2.959c-0.31-0.196-0.702-0.206-1.022-0.026l-4.414,2.476   l-4.232-4.232l2.476-4.414c0.18-0.32,0.169-0.712-0.026-1.022c-1.389-2.204-2.385-4.606-2.96-7.143   c-0.081-0.357-0.351-0.642-0.704-0.741L4,34.993v-5.985l4.871-1.37c0.353-0.099,0.623-0.384,0.704-0.741   c0.575-2.536,1.571-4.939,2.96-7.143c0.195-0.31,0.206-0.703,0.026-1.022l-2.476-4.414l4.232-4.232l4.415,2.476   c0.32,0.18,0.713,0.17,1.022-0.026c2.203-1.389,4.605-2.384,7.142-2.959c0.357-0.081,0.642-0.351,0.741-0.704L29.007,4h5.985   l1.37,4.871c0.099,0.353,0.384,0.623,0.741,0.704c2.537,0.575,4.939,1.571,7.142,2.959c0.311,0.196,0.703,0.206,1.022,0.026   l4.415-2.476l4.232,4.232l-2.476,4.414c-0.18,0.32-0.169,0.712,0.026,1.022c1.388,2.202,2.384,4.605,2.959,7.143   c0.081,0.357,0.351,0.642,0.704,0.741L60,29.007V34.993z"/><path d="M32,11c-11.58,0-21,9.42-21,21s9.42,21,21,21s21-9.42,21-21S43.58,11,32,11z M32,51c-10.477,0-19-8.523-19-19   s8.523-19,19-19s19,8.523,19,19S42.477,51,32,51z"/><path d="M32,15c-9.374,0-17,7.626-17,17s7.626,17,17,17s17-7.626,17-17S41.374,15,32,15z M46.125,37H37c-0.552,0-1,0.448-1,1v3   h-3.184c-0.414-1.161-1.514-2-2.816-2c-1.654,0-3,1.346-3,3s1.346,3,3,3c1.302,0,2.402-0.839,2.816-2H37c0.552,0,1-0.448,1-1v-3   h7.256c-2.52,4.752-7.513,8-13.256,8c-4.427,0-8.4-1.939-11.149-5H21v-7h2v1c0,0.552,0.448,1,1,1h4c0.552,0,1-0.448,1-1v-4   c0-0.552-0.448-1-1-1h-4c-0.552,0-1,0.448-1,1v1h-3c-0.552,0-1,0.448-1,1v5.451c-1.265-2.198-2-4.738-2-7.451   c0-3.379,1.136-6.49,3.029-9H23v3c0,0.552,0.448,1,1,1h3.184c0.414,1.161,1.514,2,2.816,2c1.654,0,3-1.346,3-3s-1.346-3-3-3   c-1.302,0-2.402,0.839-2.816,2H25v-3c0-0.552-0.448-1-1-1h-2.163c2.212-2.045,5.033-3.431,8.163-3.851V21c0,0.552,0.448,1,1,1h5v7   h-1c-0.552,0-1,0.448-1,1v4c0,0.552,0.448,1,1,1h4c0.552,0,1-0.448,1-1v-4c0-0.552-0.448-1-1-1h-1v-8c0-0.552-0.448-1-1-1h-5v-3   c8.271,0,15,6.729,15,15C47,33.755,46.681,35.433,46.125,37z M31,42c0,0.551-0.449,1-1,1s-1-0.449-1-1s0.449-1,1-1S31,41.449,31,42   z M25,35v-2h2v2H25z M29,26c0-0.551,0.449-1,1-1s1,0.449,1,1s-0.449,1-1,1S29,26.551,29,26z M38,31v2h-2v-2H38z"/><rect x="31" y="6" width="2" height="2"/><rect x="41" y="26" width="2" height="2"/><rect x="42" y="31" width="2" height="2"/><rect x="20" y="28" width="2" height="2"/><rect x="31" y="36" width="2" height="2"/><rect x="23" y="40" width="2" height="2"/><rect x="48.678" y="13.322" transform="matrix(0.7071 -0.7071 0.7071 0.7071 4.4229 39.3224)" width="2" height="2"/><rect x="56" y="31" width="2" height="2"/><rect x="48.678" y="48.678" transform="matrix(0.7071 -0.7071 0.7071 0.7071 -20.5772 49.6777)" width="2" height="2"/><rect x="31" y="56" width="2" height="2"/><rect x="13.322" y="48.678" transform="matrix(0.7071 -0.7071 0.7071 0.7071 -30.9326 24.6776)" width="2" height="2"/><rect x="6" y="31" width="2" height="2"/><rect x="13.322" y="13.322" transform="matrix(0.7071 -0.7071 0.7071 0.7071 -5.9325 14.3223)" width="2" height="2"/></g></svg></svg> <defs><filter id="colors6666408355"><feColorMatrix type="matrix" values="0 0 0 0 0.265625  0 0 0 0 0.50390625  0 0 0 0 0.91796875  0 0 0 1 0" class="icon-feColorMatrix "/></filter> <filter id="colorsf5361948445"><feColorMatrix type="matrix" values="0 0 0 0 0.99609375  0 0 0 0 0.99609375  0 0 0 0 0.99609375  0 0 0 1 0" class="icon-fecolormatrix"/></filter> <filter id="colorsb9963733986"><feColorMatrix type="matrix" values="0 0 0 0 0  0 0 0 0 0  0 0 0 0 0  0 0 0 1 0" class="icon-fecolormatrix"/></filter></defs></g><rect v-gra="id" width="72" height="72" transform="translate(-6, -6)" style="pointer-events:none;" fill="url(#g1Ze6Xvw9xVZPBJQKz3A7)"/></g> <g transform="translate(0,67)"><g fill-rule="" class="tp-name iconsvg-namesvg" fill="url(#dad43a24-429c-437d-9f0b-ef5d1a60b96a)"><g transform="scale(1)"><g><path d="M18.42-14.45C18.42-19.28 15-21.83 9.5-21.83 4.55-21.83 1.23-19.37 1.23-16.05 1.23-8.21 14.26-11.04 14.26-5.96 14.26-4.21 12.45-3.07 9.87-3.07 6.89-3.07 5.13-4.61 5.13-7.1L0.92-7.1C0.92-2 4.52 0.31 9.96 0.31 14.94 0.31 18.42-2.18 18.42-5.96 18.42-13.77 5.26-11.41 5.26-15.99 5.26-17.83 7.5-18.48 9.53-18.48 12.33-18.48 14.26-16.91 14.26-14.45ZM41.04 0L45.19 0 45.19-7.59 50.02-7.59 54.05 0 58.72 0 53.71-8.3C56.32-9.59 57.49-12.42 57.49-14.73 57.49-19.06 54.78-21.52 49.93-21.52L21.18-21.52 21.18-17.77 49.47-17.77C52.23-17.77 53.58-16.75 53.58-14.63 53.58-12.36 51.99-11.04 49.5-11.04L41.04-11.04ZM37.11-8.85L37.11-12.67 21.18-12.67 21.18-8.85ZM21.18 0L37.11 0 37.11-4.06 21.18-4.06ZM66.19 0L70.43 0 62.68-21.52 58.32-21.52ZM71.82-3.2L79.04-21.52 74.31-21.52 69.85-8.58ZM85.4-18.2L85.4-21.52 81.22-21.52 81.22-18.2ZM81.22 0L85.37 0 85.37-15.37 81.22-15.37ZM99.67 0.31C105.79 0.31 109.11-3.29 109.81-7.75L105.6-7.75C104.89-5.07 102.71-3.32 99.55-3.32 95.33-3.32 92.66-7.04 92.66-11.07 92.66-15.31 95.64-18.17 99.48-18.17 103.14-18.17 105.05-16.11 105.66-13.56L109.81-13.56C109.2-18.85 105.05-21.83 99.21-21.83 92.66-21.83 88.6-16.88 88.6-10.76 88.6-4.67 92.32 0.31 99.67 0.31ZM128.51-17.49L128.51-21.52 112.58-21.52 112.58-17.49ZM128.51-8.85L128.51-12.67 112.58-12.67 112.58-8.85ZM112.58 0L128.51 0 128.51-4.06 112.58-4.06ZM148.77-14.45C148.77-19.28 145.35-21.83 139.85-21.83 134.9-21.83 131.58-19.37 131.58-16.05 131.58-8.21 144.61-11.04 144.61-5.96 144.61-4.21 142.8-3.07 140.22-3.07 137.24-3.07 135.48-4.61 135.48-7.1L131.27-7.1C131.27-2 134.87 0.31 140.31 0.31 145.29 0.31 148.77-2.18 148.77-5.96 148.77-13.77 135.61-11.41 135.61-15.99 135.61-17.83 137.85-18.48 139.88-18.48 142.68-18.48 144.61-16.91 144.61-14.45ZM161.95-21.83L161.95-17.89C166.01-17.89 169.09-15.56 169.09-10.76 169.09-5.96 166.01-3.6 161.95-3.6 158.02-3.6 154.98-5.96 154.98-10.76 154.98-10.76 150.79-10.76 150.79-10.76 150.79-3.66 155.74 0.31 161.95 0.31 168.32 0.31 173.24-3.35 173.24-10.76 173.24-17.83 168.32-21.83 161.95-21.83ZM180.65-6.43L180.65-21.52 176.46-21.52 176.46-6.43ZM176.46 0L192.11 0 192.11-4.06 176.46-4.06ZM208.28-7.78L212.5-7.78 212.5-21.52 208.28-21.52ZM203.49 0.31C203.49 0.31 203.52-3.11 203.52-3.75 200.57-3.75 198.54-5.32 198.54-8.39L198.54-21.52 194.45-21.52 194.45-7.78C194.45-2.27 198.51 0.31 203.49 0.31ZM214.56-21.52L214.56-17.49 231.65-17.49 231.65-21.52ZM221.04-14.76L221.04 0 225.19 0 225.19-14.76ZM238.13-18.2L238.13-21.52 233.95-21.52 233.95-18.2ZM233.95 0L238.1 0 238.1-15.37 233.95-15.37ZM252.49-21.83L252.49-17.89C256.55-17.89 259.62-15.56 259.62-10.76 259.62-5.96 256.55-3.6 252.49-3.6 248.56-3.6 245.51-5.96 245.51-10.76 245.51-10.76 241.33-10.76 241.33-10.76 241.33-3.66 246.28 0.31 252.49 0.31 258.86 0.31 263.77-3.35 263.77-10.76 263.77-17.83 258.86-21.83 252.49-21.83ZM281.54 0L285.6 0 285.6-21.52 281.64-21.52 281.64-6.7 281.48-6.7 271.09-21.52 266.82-21.52ZM267 0L271.03 0 271.03-10.54 267-16.29ZM297.19-18.48C299.99-18.48 301.93-16.91 301.93-14.45L306.08-14.45C306.08-19.28 302.66-21.83 297.16-21.83ZM288.89-16.05C288.89-8.21 301.93-11.04 301.93-5.96 301.93-4.21 300.11-3.07 297.53-3.07 294.55-3.07 292.8-4.61 292.8-7.1L288.58-7.1C288.58-2 292.18 0.31 297.62 0.31 302.6 0.31 306.08-2.18 306.08-5.96 306.08-13.77 292.92-11.41 292.92-15.99Z" transform="translate(-0.9200000166893005, 21.829999923706055)"/></g> </g></g> </g></g><defs v-gra="od"><linearGradient x1="0" y1="1" x2="0" y2="0" id="dad43a24-429c-437d-9f0b-ef5d1a60b96a"><stop offset="0%" stop-color="#4481eb"/><stop offset="100%" stop-color="#05befe"/></linearGradient><filter id="42443b3f1de60f6b6fd3b6a9844b4764" filterUnits="objectBoundingBox"><feColorMatrix type="matrix" values="0 0 0 0 0.99609375  0 0 0 0 0.99609375  0 0 0 0 0.99609375  0 0 0 1 0"/></filter></defs><defs v-gra="id"><filter id="c6f9afd1-dab3-437b-97a0-1be9c3a23e65" filterUnits="userSpaceOnUse"><feColorMatrix type="matrix" values="0 0 0 0 0.99609375  0 0 0 0 0.99609375  0 0 0 0 0.99609375  0 0 0 1 0"/></filter><linearGradient x1="0" y1="1" x2="0" y2="0" id="g1Ze6Xvw9xVZPBJQKz3A7"><stop offset="0%" stop-color="#4481eb"/><stop offset="100%" stop-color="#05befe"/></linearGradient><filter id="42443b3f1de60f6b6fd3b6a9844b4764" filterUnits="objectBoundingBox"><feColorMatrix type="matrix" values="0 0 0 0 0.99609375  0 0 0 0 0.99609375  0 0 0 0 0.99609375  0 0 0 1 0"/></filter></defs><mask v-gra="im" id="05f07e9f-ad63-4ec1-a1e7-eeaf0730b3aa"><g class="iconsvg-imagesvg" filter="url(#c6f9afd1-dab3-437b-97a0-1be9c3a23e65)"><g><rect fill="#4481eb" fill-opacity="0" stroke-width="2" x="0" y="0" width="60" height="60" class="image-rect"/> <svg x="0" y="0" width="60" height="60" filtersec="colorsf5361948445" class="image-svg-svg primary" style="overflow: visible;"><svg xmlns="http://www.w3.org/2000/svg" xmlns:xlink="http://www.w3.org/1999/xlink" version="1.1" x="0px" y="0px" viewBox="2 2 60 60" enable-background="new 0 0 64 64" xml:space="preserve"><g><path d="M61.271,27.288l-5.035-1.417c-0.593-2.351-1.521-4.591-2.766-6.674l2.56-4.563c0.219-0.391,0.152-0.879-0.165-1.196   l-5.303-5.303c-0.315-0.316-0.805-0.384-1.196-0.165l-4.563,2.56c-2.083-1.245-4.322-2.173-6.673-2.766l-1.417-5.035   C36.591,2.298,36.198,2,35.75,2h-7.5c-0.448,0-0.841,0.298-0.962,0.729l-1.417,5.035c-2.351,0.593-4.591,1.521-6.673,2.766   l-4.563-2.56c-0.39-0.219-0.879-0.151-1.196,0.165l-5.303,5.303c-0.317,0.317-0.384,0.806-0.165,1.196l2.56,4.563   c-1.245,2.083-2.173,4.323-2.766,6.674l-5.035,1.417C2.298,27.409,2,27.802,2,28.25v7.5c0,0.448,0.298,0.841,0.729,0.962   l5.035,1.417c0.592,2.351,1.521,4.59,2.766,6.674l-2.56,4.563c-0.219,0.391-0.152,0.879,0.165,1.196l5.303,5.303   c0.317,0.316,0.806,0.385,1.196,0.165l4.563-2.56c2.083,1.245,4.323,2.173,6.674,2.766l1.417,5.035   C27.409,61.702,27.802,62,28.25,62h7.5c0.448,0,0.841-0.298,0.962-0.729l1.417-5.035c2.351-0.592,4.591-1.521,6.674-2.766   l4.563,2.56c0.392,0.22,0.881,0.151,1.196-0.165l5.303-5.303c0.317-0.317,0.384-0.806,0.165-1.196l-2.56-4.563   c1.245-2.083,2.173-4.323,2.766-6.674l5.035-1.417C61.702,36.591,62,36.198,62,35.75v-7.5C62,27.802,61.702,27.409,61.271,27.288z    M60,34.993l-4.871,1.37c-0.353,0.099-0.623,0.384-0.704,0.741c-0.575,2.537-1.571,4.94-2.959,7.143   c-0.196,0.31-0.206,0.703-0.026,1.022l2.476,4.414l-4.232,4.232l-4.414-2.476c-0.319-0.179-0.712-0.169-1.022,0.026   c-2.203,1.389-4.606,2.384-7.143,2.959c-0.357,0.081-0.642,0.351-0.741,0.704L34.993,60h-5.985l-1.37-4.871   c-0.099-0.353-0.384-0.623-0.741-0.704c-2.537-0.575-4.94-1.571-7.143-2.959c-0.31-0.196-0.702-0.206-1.022-0.026l-4.414,2.476   l-4.232-4.232l2.476-4.414c0.18-0.32,0.169-0.712-0.026-1.022c-1.389-2.204-2.385-4.606-2.96-7.143   c-0.081-0.357-0.351-0.642-0.704-0.741L4,34.993v-5.985l4.871-1.37c0.353-0.099,0.623-0.384,0.704-0.741   c0.575-2.536,1.571-4.939,2.96-7.143c0.195-0.31,0.206-0.703,0.026-1.022l-2.476-4.414l4.232-4.232l4.415,2.476   c0.32,0.18,0.713,0.17,1.022-0.026c2.203-1.389,4.605-2.384,7.142-2.959c0.357-0.081,0.642-0.351,0.741-0.704L29.007,4h5.985   l1.37,4.871c0.099,0.353,0.384,0.623,0.741,0.704c2.537,0.575,4.939,1.571,7.142,2.959c0.311,0.196,0.703,0.206,1.022,0.026   l4.415-2.476l4.232,4.232l-2.476,4.414c-0.18,0.32-0.169,0.712,0.026,1.022c1.388,2.202,2.384,4.605,2.959,7.143   c0.081,0.357,0.351,0.642,0.704,0.741L60,29.007V34.993z"/><path d="M32,11c-11.58,0-21,9.42-21,21s9.42,21,21,21s21-9.42,21-21S43.58,11,32,11z M32,51c-10.477,0-19-8.523-19-19   s8.523-19,19-19s19,8.523,19,19S42.477,51,32,51z"/><path d="M32,15c-9.374,0-17,7.626-17,17s7.626,17,17,17s17-7.626,17-17S41.374,15,32,15z M46.125,37H37c-0.552,0-1,0.448-1,1v3   h-3.184c-0.414-1.161-1.514-2-2.816-2c-1.654,0-3,1.346-3,3s1.346,3,3,3c1.302,0,2.402-0.839,2.816-2H37c0.552,0,1-0.448,1-1v-3   h7.256c-2.52,4.752-7.513,8-13.256,8c-4.427,0-8.4-1.939-11.149-5H21v-7h2v1c0,0.552,0.448,1,1,1h4c0.552,0,1-0.448,1-1v-4   c0-0.552-0.448-1-1-1h-4c-0.552,0-1,0.448-1,1v1h-3c-0.552,0-1,0.448-1,1v5.451c-1.265-2.198-2-4.738-2-7.451   c0-3.379,1.136-6.49,3.029-9H23v3c0,0.552,0.448,1,1,1h3.184c0.414,1.161,1.514,2,2.816,2c1.654,0,3-1.346,3-3s-1.346-3-3-3   c-1.302,0-2.402,0.839-2.816,2H25v-3c0-0.552-0.448-1-1-1h-2.163c2.212-2.045,5.033-3.431,8.163-3.851V21c0,0.552,0.448,1,1,1h5v7   h-1c-0.552,0-1,0.448-1,1v4c0,0.552,0.448,1,1,1h4c0.552,0,1-0.448,1-1v-4c0-0.552-0.448-1-1-1h-1v-8c0-0.552-0.448-1-1-1h-5v-3   c8.271,0,15,6.729,15,15C47,33.755,46.681,35.433,46.125,37z M31,42c0,0.551-0.449,1-1,1s-1-0.449-1-1s0.449-1,1-1S31,41.449,31,42   z M25,35v-2h2v2H25z M29,26c0-0.551,0.449-1,1-1s1,0.449,1,1s-0.449,1-1,1S29,26.551,29,26z M38,31v2h-2v-2H38z"/><rect x="31" y="6" width="2" height="2"/><rect x="41" y="26" width="2" height="2"/><rect x="42" y="31" width="2" height="2"/><rect x="20" y="28" width="2" height="2"/><rect x="31" y="36" width="2" height="2"/><rect x="23" y="40" width="2" height="2"/><rect x="48.678" y="13.322" transform="matrix(0.7071 -0.7071 0.7071 0.7071 4.4229 39.3224)" width="2" height="2"/><rect x="56" y="31" width="2" height="2"/><rect x="48.678" y="48.678" transform="matrix(0.7071 -0.7071 0.7071 0.7071 -20.5772 49.6777)" width="2" height="2"/><rect x="31" y="56" width="2" height="2"/><rect x="13.322" y="48.678" transform="matrix(0.7071 -0.7071 0.7071 0.7071 -30.9326 24.6776)" width="2" height="2"/><rect x="6" y="31" width="2" height="2"/><rect x="13.322" y="13.322" transform="matrix(0.7071 -0.7071 0.7071 0.7071 -5.9325 14.3223)" width="2" height="2"/></g></svg></svg> <defs><filter id="colors6666408355"><feColorMatrix type="matrix" values="0 0 0 0 0.265625  0 0 0 0 0.50390625  0 0 0 0 0.91796875  0 0 0 1 0" class="icon-fecolormatrix"/></filter> <filter id="colorsf5361948445"><feColorMatrix type="matrix" values="0 0 0 0 0.99609375  0 0 0 0 0.99609375  0 0 0 0 0.99609375  0 0 0 1 0" class="icon-fecolormatrix"/></filter> <filter id="colorsb9963733986"><feColorMatrix type="matrix" values="0 0 0 0 0  0 0 0 0 0  0 0 0 0 0  0 0 0 1 0" class="icon-fecolormatrix"/></filter></defs></g></g></mask>
  </svg>
</svg>


